# xmcd
#
# Track frame offsets: 
#        150
#        12132
#        24518
#        39290
#        53001
#        64270
#        76505
#        91234
#        103507
#        116351
#        130019
#        144289
#        157371
#        171160
#
# Disc length: 2450 seconds
#
# Revision: 3
# Processed by: cddbd v1.5.2PL0 Copyright (c) Steve Scherf et al.
# Submitted via: ExactAudioCopyFreeDBPlugin 1.0
#
DISCID=a209900e
DTITLE=T-Bone Walker - Blues pioneers, Disc 6
DYEAR=2007
DGENRE=Blues
TTITLE0=Bobby Sox blues
TTITLE1=Midnight blues
TTITLE2=T-Bone blues
TTITLE3=Call it stormy Monday but Tuesday is just as bad
TTITLE4=Lonesome woman blues
TTITLE5=No worry blues
TTITLE6=I got a break baby
TTITLE7=Too much trouble blues
TTITLE8=Long skirt baby blues
TTITLE9=Hard pain blues
TTITLE10=She had to let me down
TTITLE11=Mean old world
TTITLE12=Triffin' woman blues
TTITLE13=Don't leave me baby
EXTD=
EXTT0=
EXTT1=
EXTT2=
EXTT3=
EXTT4=
EXTT5=
EXTT6=
EXTT7=
EXTT8=
EXTT9=
EXTT10=
EXTT11=
EXTT12=
EXTT13=
PLAYORDER=
